<?xml version="1.0" encoding="UTF-8"?>
<svg xmlns="http://www.w3.org/2000/svg" xmlns:xlink="http://www.w3.org/1999/xlink" viewBox="0 0 50 50" width="50px" height="50px">
<g id="surface45905345">
<rect x="0" y="0" width="50" height="50" style="fill:rgb(100%,100%,100%);fill-opacity:1;stroke:none;"/>
<path style="fill-rule:nonzero;fill:rgb(0.392157%,12.156863%,95.294118%);fill-opacity:1;stroke-width:10;stroke-linecap:butt;stroke-linejoin:round;stroke:rgb(0.392157%,12.156863%,95.294118%);stroke-opacity:1;stroke-miterlimit:10;" d="M 65.76 36.64 L 128 98.86 L 190.24 36.64 C 193.56 33.3 198.96 33.3 202.3 36.64 L 219.36 53.7 C 222.7 57.02 222.7 62.44 219.36 65.76 L 157.14 128 L 219.36 190.24 C 222.7 193.56 222.7 198.96 219.36 202.3 L 202.3 219.36 C 198.98 222.7 193.56 222.7 190.24 219.36 L 128 157.14 L 65.76 219.36 C 62.44 222.7 57.04 222.7 53.7 219.36 L 36.64 202.3 C 33.3 198.98 33.3 193.56 36.64 190.24 L 98.86 128 L 36.64 65.76 C 33.3 62.44 33.3 57.04 36.64 53.7 L 53.7 36.64 C 55.36 34.96 57.54 34.14 59.74 34.14 C 61.92 34.14 64.1 34.96 65.76 36.64 Z M 65.76 36.64 " transform="matrix(0.195312,0,0,0.195312,0,0)"/>
<path style=" stroke:none;fill-rule:nonzero;fill:rgb(100%,100%,100%);fill-opacity:1;" d="M 11.667969 6.667969 C 11.238281 6.667969 10.8125 6.828125 10.488281 7.15625 L 7.15625 10.488281 C 6.503906 11.140625 6.503906 12.195312 7.15625 12.84375 L 19.308594 25 L 7.15625 37.15625 C 6.503906 37.804688 6.503906 38.863281 7.15625 39.511719 L 10.488281 42.84375 C 11.140625 43.496094 12.195312 43.496094 12.84375 42.84375 L 25 30.691406 L 37.15625 42.84375 C 37.804688 43.496094 38.863281 43.496094 39.511719 42.84375 L 42.84375 39.511719 C 43.496094 38.859375 43.496094 37.804688 42.84375 37.15625 L 30.691406 25 L 42.84375 12.84375 C 43.496094 12.195312 43.496094 11.136719 42.84375 10.488281 L 39.511719 7.15625 C 38.859375 6.503906 37.804688 6.503906 37.15625 7.15625 L 25 19.308594 L 12.84375 7.15625 C 12.519531 6.828125 12.09375 6.667969 11.667969 6.667969 Z M 11.667969 6.667969 "/>
</g>
</svg>
